<svg width="496" height="350" fill="none" xmlns="http://www.w3.org/2000/svg"><path d="M490.475 6.156H410V47h80.475V6.156Z" fill="#F2F2F2"/><path d="m424.125 43.26 18.227-30.431 18.905 30.43" fill="#FA9E53"/><path d="m451.754 27.69 3.639-9.503 20.625 25.072h-24.365l.101-15.569ZM447.922 23.914a5.053 5.053 0 0 0 1.672-6.954 5.063 5.063 0 0 0-5.106-2.35 5.056 5.056 0 0 0-1.851.685" fill="#FA9E53"/><path d="M495.226 1h-80.474v40.844h80.474V1Z" stroke="#3F3D56" stroke-miterlimit="10"/><path d="m425.136 41.844 18.227-30.43 18.905 30.43M452.36 25.87l3.64-9.503 20.624 25.477" stroke="#3F3D56" stroke-miterlimit="10"/><path d="M449.337 21.084a5.058 5.058 0 0 0 2.278-3.131 5.058 5.058 0 0 0-5.711-6.174 5.056 5.056 0 0 0-1.851.685" stroke="#3F3D56" stroke-miterlimit="10"/><path d="M92.912 278.348c-21.31-79.566-17.877-168.745 0-263.535a8.863 8.863 0 0 1 8.853-8.853H365.19a8.864 8.864 0 0 1 8.853 8.853v263.535a8.864 8.864 0 0 1-8.853 8.853H101.765a8.863 8.863 0 0 1-8.853-8.853Z" fill="#F2F2F2"/><path d="M94.599 212.397A898.016 898.016 0 0 1 98.883 20.79a8.865 8.865 0 0 1 8.854-8.853h251.48a8.855 8.855 0 0 1 8.853 8.853v251.586a8.854 8.854 0 0 1-8.853 8.854H169.554a75.181 75.181 0 0 1-74.955-68.833Z" fill="#fff"/><path d="M255.618 61.618H149.741a2.283 2.283 0 1 1 0-4.566h105.877a2.283 2.283 0 0 1 0 4.566Z" fill="#FA9E53"/><path d="M309.214 82.492H149.741a2.28 2.28 0 0 1-2.288-2.283 2.284 2.284 0 0 1 2.288-2.283h159.473a2.284 2.284 0 0 1 0 4.566Z" fill="#F8BE8E"/><path d="M309.217 98.796h-159.48a2.283 2.283 0 0 0-2.285 2.285 2.283 2.283 0 0 0 2.285 2.285h159.48a2.282 2.282 0 0 0 2.285-2.285 2.282 2.282 0 0 0-2.285-2.285ZM309.214 124.24H149.741a2.283 2.283 0 0 1 0-4.566h159.473a2.284 2.284 0 0 1 1.615 3.898 2.283 2.283 0 0 1-1.615.668ZM309.214 145.115H149.741a2.283 2.283 0 1 1 0-4.567h159.473a2.283 2.283 0 0 1 0 4.567ZM309.214 166.115H149.741a2.283 2.283 0 1 1 0-4.567h159.473a2.283 2.283 0 0 1 0 4.567ZM309.214 187.115H149.741a2.283 2.283 0 1 1 0-4.567h159.473a2.283 2.283 0 0 1 0 4.567ZM309.214 208.115H149.741a2.283 2.283 0 1 1 0-4.567h159.473a2.283 2.283 0 0 1 0 4.567Z" fill="#F2F2F2"/><path d="M309.214 229.115H149.741a2.283 2.283 0 1 1 0-4.567h159.473a2.283 2.283 0 0 1 0 4.567Z" fill="#3F3D56"/><path d="M271.372 90.07c-7.007-2.502-16.08-1.526-20.998 4.576-4.404 5.465-4.932 14.167.672 19.044 6.821 5.937 16.269 3.753 23.718.403 6.815-3.065 14.318-8.007 14.212-16.393a13.566 13.566 0 0 0-5.744-10.985 13.755 13.755 0 0 0-12.321-1.56c-1.799.658-1.022 3.558.797 2.893a10.544 10.544 0 0 1 14.16 8.201c1.052 6.963-4.897 11.473-10.426 14.221-6.066 3.014-13.786 5.898-20.28 2.435-5.555-2.962-6.57-9.718-3.491-14.907 3.818-6.433 12.413-7.353 18.903-5.035 1.822.651 2.606-2.246.798-2.892Z" fill="#FA9E53"/><path d="M177.372 132.071c-7.007-2.504-16.08-1.527-20.998 4.575-4.404 5.465-4.932 14.167.672 19.044 6.821 5.937 16.269 3.753 23.718.403 6.815-3.065 14.318-8.007 14.212-16.393a13.566 13.566 0 0 0-5.744-10.985 13.756 13.756 0 0 0-12.321-1.559c-1.799.657-1.022 3.557.797 2.892a10.552 10.552 0 0 1 9.031.731 10.543 10.543 0 0 1 5.129 7.47c1.052 6.963-4.897 11.473-10.426 14.221-6.066 3.014-13.786 5.898-20.28 2.435-5.555-2.962-6.57-9.718-3.491-14.907 3.818-6.433 12.413-7.353 18.903-5.035 1.822.651 2.606-2.247.798-2.892ZM270.372 216.071c-7.007-2.504-16.08-1.527-20.998 4.575-4.404 5.465-4.932 14.167.672 19.044 6.821 5.937 16.269 3.753 23.718.403 6.815-3.065 14.318-8.007 14.212-16.393a13.566 13.566 0 0 0-5.744-10.985 13.756 13.756 0 0 0-12.321-1.559c-1.799.657-1.022 3.557.797 2.892a10.552 10.552 0 0 1 9.031.731 10.543 10.543 0 0 1 5.129 7.47c1.052 6.963-4.897 11.473-10.426 14.221-6.066 3.014-13.786 5.898-20.28 2.435-5.555-2.962-6.57-9.718-3.491-14.907 3.818-6.433 12.413-7.353 18.903-5.035 1.822.651 2.606-2.247.798-2.892ZM266.979 244.45a69.25 69.25 0 0 0 19.597 38.465 68.29 68.29 0 0 0 61.467 18.047c1.87-.39 1.627-3.383-.262-2.988a66.189 66.189 0 0 1-39.761-4.092 65.322 65.322 0 0 1-38.053-49.695c-.29-1.902-3.28-1.651-2.988.263Z" fill="#E6E6E6"/><path d="m352.568 320.264 22.314-12.85a1.511 1.511 0 0 0 .518-1.837 1.516 1.516 0 0 0-.407-.548l-22.973-16.631c-1.555-1.126-3.495 1.164-1.928 2.299l22.974 16.631.112-2.384-22.314 12.85c-1.676.965.042 3.427 1.704 2.47Z" fill="#E6E6E6"/><path d="M285.979 83.643a69.253 69.253 0 0 1 19.597-38.465 68.298 68.298 0 0 1 61.467-18.047c1.87.39 1.627 3.383-.262 2.988a66.184 66.184 0 0 0-39.761 4.092 65.317 65.317 0 0 0-38.053 49.695c-.29 1.902-3.28 1.65-2.988-.263Z" fill="#3F3D56"/><path d="m371.568 7.83 22.314 12.85a1.504 1.504 0 0 1 .518 1.835 1.506 1.506 0 0 1-.407.549L371.02 39.695c-1.555 1.126-3.495-1.164-1.928-2.299l22.974-16.631.112 2.384-22.314-12.85c-1.676-.965.042-3.427 1.704-2.47Z" fill="#3F3D56"/><path d="M166.976 164.45a69.25 69.25 0 0 1-19.597 38.465 68.287 68.287 0 0 1-28.487 16.677 68.288 68.288 0 0 1-32.98 1.37c-1.87-.39-1.628-3.383.262-2.988a66.19 66.19 0 0 0 39.761-4.092 65.311 65.311 0 0 0 38.052-49.695c.29-1.902 3.281-1.651 2.989.263Z" fill="#E6E6E6"/><path d="m81.387 240.264-22.314-12.85a1.515 1.515 0 0 1-.642-1.165 1.513 1.513 0 0 1 .53-1.22l22.974-16.631c1.555-1.126 3.495 1.164 1.928 2.299l-22.974 16.631-.112-2.384 22.314 12.85c1.676.965-.042 3.427-1.704 2.47Z" fill="#E6E6E6"/><path d="M14.663 266.046C3.483 246.808-1.847 226.147.575 203.601a4.894 4.894 0 0 1 3.692-5.843l47.16-10.639a4.891 4.891 0 0 1 5.842 3.691l14.088 62.445a4.893 4.893 0 0 1-3.692 5.843l-47.16 10.639a4.891 4.891 0 0 1-5.842-3.691Z" fill="#F2F2F2"/><path d="M14.025 246.369c-7.027-9.023-8.735-23.83-9.057-40.146a4.58 4.58 0 0 1 3.458-5.471l40.53-9.144a4.582 4.582 0 0 1 5.471 3.457l12.537 55.568a4.58 4.58 0 0 1-3.458 5.471L38.4 261.769a20.413 20.413 0 0 1-24.374-15.4Z" fill="#fff"/><path d="M35.209 250.604a4.274 4.274 0 1 0 0-8.547 4.274 4.274 0 0 0 0 8.547ZM40.317 205.737c-1.645-1.928-4.655-1.622-7.146-1.147a29.439 29.439 0 0 0-7.51 2.138 9.912 9.912 0 0 0-5.255 5.524c-.995 3.051.088 6.365 1.387 9.299a62.749 62.749 0 0 0 9.855 15.559l2.037.943a38.481 38.481 0 0 0 7.875-28.834 6.653 6.653 0 0 0-1.243-3.482Z" fill="#F2F2F2"/><path d="M35.209 250.604a4.274 4.274 0 1 0 0-8.547 4.274 4.274 0 0 0 0 8.547ZM40.317 205.737c-1.645-1.928-4.655-1.622-7.146-1.147a29.439 29.439 0 0 0-7.51 2.138 9.912 9.912 0 0 0-5.255 5.524c-.995 3.051.088 6.365 1.387 9.299a62.749 62.749 0 0 0 9.855 15.559l2.037.943a38.481 38.481 0 0 0 7.875-28.834 6.653 6.653 0 0 0-1.243-3.482Z" fill="#E6E6E6"/><path d="M385.051 340.767c-5.153-21.646-4.294-42.966 4.531-63.854a4.892 4.892 0 0 1 5.221-4.529l48.224 3.422a4.89 4.89 0 0 1 4.528 5.22l-4.53 63.854a4.895 4.895 0 0 1-5.221 4.529l-48.224-3.422a4.892 4.892 0 0 1-4.529-5.22Z" fill="#F2F2F2"/><path d="M390.119 321.742c-4.124-10.666-1.487-25.336 2.913-41.05a4.582 4.582 0 0 1 4.889-4.242l41.444 2.941a4.582 4.582 0 0 1 4.242 4.889l-4.032 56.821a4.583 4.583 0 0 1-4.889 4.242l-25.674-1.822a20.412 20.412 0 0 1-18.893-21.779Z" fill="#fff"/><path d="M410.413 332.092a4.274 4.274 0 1 0 0-8.548 4.274 4.274 0 0 0 0 8.548ZM427.017 290.427c-1.019-2.322-3.989-2.897-6.51-3.161a29.423 29.423 0 0 0-7.809-.12 9.906 9.906 0 0 0-6.625 3.772c-1.833 2.634-1.753 6.12-1.355 9.304a62.742 62.742 0 0 0 4.945 17.74l1.679 1.492a38.49 38.49 0 0 0 15.861-25.335 6.658 6.658 0 0 0-.186-3.692Z" fill="#FA9E53"/></svg>