<svg width="433" height="741" fill="none" xmlns="http://www.w3.org/2000/svg"><path d="M180.18 98.864c27.301 0 49.432-22.131 49.432-49.432C229.612 22.132 207.481 0 180.18 0c-27.301 0-49.432 22.131-49.432 49.432 0 27.3 22.131 49.432 49.432 49.432Z" fill="#FF6584"/><path d="M235.805 364.622a81.054 81.054 0 0 1-52.68-19.454c-4.898-4.192-10.116-11.48-15.51-21.66a49.543 49.543 0 0 1-1.571-42.765 56.84 56.84 0 0 1-9.387 7.699l-1.716 1.142-.099-2.058a82.106 82.106 0 0 1-.098-3.965c0-7.615 5.76-15.343 3.104-22.383-11.197-29.669-46.709-59.154 4.759-105.071 4.761-4.248-1.599-12.74-1.599-19.167 0-62.982 68.433-157.46 114.243-114.22 26.741 25.238 82.453 43.167 108.464 78.273l.345 1.04-1.015.411a61.273 61.273 0 0 1-16.267 4.327 77.598 77.598 0 0 0 18.138 1.519l.943-.033.23.917a114.692 114.692 0 0 1 3.406 27.766l-.004 1.012a50.59 50.59 0 0 0 16.713 37.723 81.262 81.262 0 0 1 19.567 27.184 81.221 81.221 0 0 1 6.938 32.767c0 13.352-9.074 30.879-16.687 43.231a24.444 24.444 0 0 1-17.946 11.494 23.874 23.874 0 0 1-19.266-6.224 78.951 78.951 0 0 0 13.922 19.711l1.039 1.071-1.29.751a80.993 80.993 0 0 1-40.831 11.027l-.841-.002c-21.781 0-42.456 8.438-56.723 23.152a81.676 81.676 0 0 1-58.281 24.785Z" fill="#FA9E53"/><path d="M207.22 491.6a1.463 1.463 0 0 1-1.441-1.253c-.062-.435-6.128-44.187-.68-102.335 5.032-53.701 21.19-131.05 69.594-194.575a1.451 1.451 0 0 1 .965-.561 1.451 1.451 0 0 1 1.455.712 1.466 1.466 0 0 1 .149 1.105 1.441 1.441 0 0 1-.25.511c-47.986 62.977-64.014 139.758-69.01 193.08-5.417 57.81.602 101.221.664 101.652a1.467 1.467 0 0 1-.344 1.162 1.457 1.457 0 0 1-1.102.502Z" fill="#CCC"/><path d="M251.418 281.435a1.462 1.462 0 0 1-1.388-1.007 1.46 1.46 0 0 1 .529-1.63 200.914 200.914 0 0 1 44.357-22.58c24.472-8.959 61.685-17.081 99.996-4.888.182.058.351.151.498.274a1.47 1.47 0 0 1 .512.991 1.466 1.466 0 0 1-.338 1.063 1.458 1.458 0 0 1-1.556.45c-37.526-11.943-74.065-3.955-98.11 4.848a197.667 197.667 0 0 0-43.645 22.2 1.445 1.445 0 0 1-.855.279ZM183.697 109.259a1.458 1.458 0 0 1 2.569-1.046 201.022 201.022 0 0 1 25.715 42.615c10.698 23.764 21.48 60.296 12.077 99.385a1.442 1.442 0 0 1-.656.903 1.454 1.454 0 0 1-1.619-.064 1.466 1.466 0 0 1-.582-.952c-.03-.19-.022-.383.023-.569 9.209-38.288-1.39-74.157-11.902-97.506a197.616 197.616 0 0 0-25.285-41.932 1.45 1.45 0 0 1-.34-.834Z" fill="#CCC"/><path d="m116.202 711.394-1.414-1.414c48.58-48.58 67.301-67.153 71.267-71.083L42.91 535.498l1.17-1.621 145.061 104.782-.841.83c-.16.159-16.742 16.55-72.098 71.905ZM260.294 654 174 739.178l1.405 1.424 86.294-85.179-1.405-1.423Z" fill="#CACACA"/><path d="M425.495 449.529h-70v-17.684h26a6.002 6.002 0 0 0 6-6v-19.158a6.002 6.002 0 0 0-6-6h-26v-6a8.002 8.002 0 0 0-8-8 8.002 8.002 0 0 0-8 8v6h-96.091a6.005 6.005 0 0 0-3.467 1.103l-13.527 9.579a6.01 6.01 0 0 0-2.533 4.897 5.995 5.995 0 0 0 2.533 4.897l13.527 9.579a6.005 6.005 0 0 0 3.467 1.103h96.091v17.684h-70a5.996 5.996 0 0 0-4.242 1.758 5.996 5.996 0 0 0-1.758 4.242v19.158a5.998 5.998 0 0 0 6 6h70v66a8 8 0 1 0 16 0v-66h70a6.002 6.002 0 0 0 6-6v-19.158a5.99 5.99 0 0 0-1.757-4.242 5.99 5.99 0 0 0-4.243-1.758Z" fill="#3F3D56"/><path d="M307.495 417.187h-50a3.503 3.503 0 0 1-3.5-3.5 3.503 3.503 0 0 1 3.5-3.5h50a3.502 3.502 0 0 1 2.475 5.975 3.502 3.502 0 0 1-2.475 1.025Z" fill="#6C63FF"/><path d="M369.495 468.187h-50a3.503 3.503 0 0 1-3.5-3.5 3.503 3.503 0 0 1 3.5-3.5h50a3.502 3.502 0 0 1 2.475 5.975 3.502 3.502 0 0 1-2.475 1.025Z" fill="#fff"/><path d="M129.495 549.529v-17.684h26a6.002 6.002 0 0 0 6-6v-19.158a6.002 6.002 0 0 0-6-6h-26v-5.726a8.18 8.18 0 0 0-7.467-8.257 8.017 8.017 0 0 0-5.998 2.141 7.996 7.996 0 0 0-2.535 5.842v6L5.886 551.036a3.55 3.55 0 0 0-1.874 2.111c-.847 2.582-2.628 8.092-3.839 12.438a4.666 4.666 0 0 0 4.65 5.907c6.935-.213 11.498-.536 14.665-.624a4.642 4.642 0 0 0 1.77-.405l92.237-38.618v114.568a8.179 8.179 0 0 0 7.468 8.257 8.002 8.002 0 0 0 8.532-7.983v-97.158Z" fill="#3F3D56"/><path d="m87.74 532.154-45.626 20.453a3.496 3.496 0 0 1-4.625-1.762 3.498 3.498 0 0 1 1.762-4.625l45.625-20.453a3.496 3.496 0 0 1 4.626 1.762 3.5 3.5 0 0 1-1.762 4.625Z" fill="#fff"/></svg>