<svg width="512" height="512" fill="none" xmlns="http://www.w3.org/2000/svg"><g filter="url(#a)"><path d="M449.182 120.502c-.018-.18-.049-.355-.079-.531-.011-.058-.015-.118-.027-.177a6.89 6.89 0 0 0-.155-.614c-.007-.025-.011-.051-.019-.075a6.963 6.963 0 0 0-.218-.608l-.022-.062a7.611 7.611 0 0 0-.262-.555c-.016-.03-.028-.061-.044-.091-.09-.168-.19-.33-.293-.49-.026-.041-.047-.084-.074-.124a8.101 8.101 0 0 0-.321-.434c-.036-.046-.069-.095-.106-.141a7.725 7.725 0 0 0-.439-.484l-.041-.045L345.928 14.917c-.018-.018-.037-.032-.056-.05a7.199 7.199 0 0 0-.472-.428c-.054-.043-.11-.08-.165-.122-.134-.104-.267-.208-.408-.303-.05-.033-.102-.06-.152-.092a7.086 7.086 0 0 0-.462-.276c-.035-.019-.072-.034-.108-.052a7.543 7.543 0 0 0-.539-.255c-.023-.01-.047-.016-.072-.026a7.37 7.37 0 0 0-.599-.215c-.026-.008-.052-.013-.079-.02a7.451 7.451 0 0 0-.61-.154c-.062-.013-.125-.017-.187-.028a6.984 6.984 0 0 0-.522-.078 7.222 7.222 0 0 0-.727-.037H99.556c-21.184 0-38.42 17.235-38.42 38.42v420.178c0 21.184 17.236 38.419 38.42 38.419H410.8c21.184 0 38.419-17.235 38.419-38.419V121.23c0-.244-.013-.487-.037-.728ZM348.065 37.686l76.249 76.249h-52.42c-13.139 0-23.829-10.689-23.829-23.83V37.687ZM410.8 495.21H99.556c-13.14 0-23.83-10.689-23.83-23.83V51.2c0-13.14 10.69-23.83 23.83-23.83h233.919v62.736c0 21.184 17.235 38.419 38.419 38.419h62.735v342.854c0 13.141-10.69 23.83-23.829 23.83Z" fill="url(#b)"/><path d="m342.816 13.078-1.136 3.835.106.03c.052.018.122.043.22.083l.003.001.07.028c.045.02.108.05.198.097l.039.02.039.02.016.007.004.002.15.094.112.07.139.107.008.006.008.006.007.005c.045.035.084.064.112.084.044.039.097.087.161.15l.024.024.025.024.055.051 101.012 101.012.085.089a7.369 7.369 0 0 1 .158.169l.018.025c.014.019.031.042.051.066l.007.01.008.01.114.149.004.005.008.012.053.085.108.175.007.014a37696488655.601 37696488655.601 0 0 0 .134.27l.003.008.016.042.017.041.04.102c.015.039.027.075.038.108l.012.044.008.026.007.026a3.433 3.433 0 0 1 .055.203 1.913 1.913 0 0 0 .025.152l.004.022.027.164a.466.466 0 0 1 .006.041v.001l.001.01c.011.112.017.221.017.327v350.149c0 18.975-15.444 34.419-34.419 34.419H99.556c-18.975 0-34.42-15.444-34.42-34.419V51.2c0-18.975 15.445-34.419 34.42-34.419H340.77c.106 0 .215.006.325.017h.01l.04.007.184.03.012.003.143.023c.054.012.123.03.214.057l1.118-3.84Zm0 0a7.451 7.451 0 0 0-.61-.154l1.288.39a7.37 7.37 0 0 0-.638-.226l-.04-.01Zm.159 4.542a.174.174 0 0 0-.02-.015l.003.003.017.012Zm-.243-.2-.021-.012.018.011.003.002Zm-.511-.314-.038-.014.032.012.006.002ZM445.126 120.42l.004.025-.004-.025Zm-94.233-85.562-6.828-6.828v62.076c0 15.349 12.481 27.829 27.829 27.829h62.076l-6.828-6.828-76.249-76.249Zm-13.418-7.487v-4H99.556c-15.348 0-27.83 12.48-27.83 27.83v420.178c0 15.35 12.482 27.83 27.83 27.83H410.8c15.348 0 27.829-12.48 27.829-27.83V124.525h-66.735c-18.975 0-34.419-15.444-34.419-34.42V27.372Zm111.427 91.734h-.001.001Z" stroke="#fff" stroke-opacity=".6" stroke-width="8"/><path d="M387.456 253.995h-46.688a7.295 7.295 0 1 0 0 14.59h46.688a7.295 7.295 0 1 0 0-14.59Z" fill="url(#c)"/><path d="M340.768 257.995h46.688a3.295 3.295 0 1 1 0 6.59h-46.688a3.295 3.295 0 1 1 0-6.59Z" stroke="#fff" stroke-opacity=".6" stroke-width="8"/><path d="M122.899 268.585h186.747a7.295 7.295 0 1 0 0-14.59H122.899a7.295 7.295 0 1 0 0 14.59Z" fill="url(#d)"/><path d="M309.646 264.585H122.899a3.295 3.295 0 1 1 0-6.59h186.747a3.295 3.295 0 1 1 0 6.59Z" stroke="#fff" stroke-opacity=".6" stroke-width="8"/><path d="M387.456 160.622H192.929a7.294 7.294 0 1 0 0 14.589h194.527a7.294 7.294 0 1 0 0-14.589Z" fill="url(#e)"/><path d="M192.929 164.622h194.527a3.294 3.294 0 1 1 0 6.589H192.929a3.294 3.294 0 1 1 0-6.589Z" stroke="#fff" stroke-opacity=".6" stroke-width="8"/><path d="M122.899 175.211h38.909a7.294 7.294 0 0 0 7.294-7.294 7.294 7.294 0 0 0-7.294-7.295h-38.909a7.295 7.295 0 1 0 0 14.589Z" fill="url(#f)"/><path d="M161.808 171.211h-38.909a3.294 3.294 0 1 1 0-6.589h38.909a3.293 3.293 0 0 1 3.294 3.295 3.293 3.293 0 0 1-3.294 3.294Z" stroke="#fff" stroke-opacity=".6" stroke-width="8"/><path d="M387.456 347.368h-147.84a7.294 7.294 0 0 0-7.295 7.295 7.294 7.294 0 0 0 7.295 7.295h147.84a7.294 7.294 0 0 0 7.295-7.295 7.294 7.294 0 0 0-7.295-7.295Z" fill="url(#g)"/><path d="M239.616 351.368h147.84a3.295 3.295 0 1 1 0 6.59h-147.84a3.295 3.295 0 1 1 0-6.59Z" stroke="#fff" stroke-opacity=".6" stroke-width="8"/><path d="M208.491 347.368h-85.592a7.295 7.295 0 1 0 0 14.59h85.592a7.294 7.294 0 0 0 7.295-7.295 7.294 7.294 0 0 0-7.295-7.295Z" fill="url(#h)"/><path d="M122.899 351.368h85.592a3.295 3.295 0 1 1 0 6.59h-85.592a3.295 3.295 0 1 1 0-6.59Z" stroke="#fff" stroke-opacity=".6" stroke-width="8"/><path d="M387.456 207.308H122.899a7.296 7.296 0 0 0 0 14.59h264.557a7.295 7.295 0 1 0 0-14.59Z" fill="url(#i)"/><path d="M122.899 211.308h264.557a3.295 3.295 0 1 1 0 6.59H122.899a3.295 3.295 0 1 1 0-6.59Z" stroke="#fff" stroke-opacity=".6" stroke-width="8"/><path d="M387.456 300.682H122.899a7.295 7.295 0 1 0 0 14.589h264.557a7.294 7.294 0 1 0 0-14.589Z" fill="url(#j)"/><path d="M122.899 304.682h264.557a3.294 3.294 0 1 1 0 6.589H122.899a3.295 3.295 0 1 1 0-6.589Z" stroke="#fff" stroke-opacity=".6" stroke-width="8"/></g><g filter="url(#k)" stroke="#1197D2" stroke-width="4"><path d="M456.963 112.72c-.017-.179-.049-.355-.079-.53-.01-.058-.015-.118-.027-.177a6.89 6.89 0 0 0-.155-.614c-.006-.025-.011-.051-.019-.075a6.963 6.963 0 0 0-.218-.608l-.022-.062a7.611 7.611 0 0 0-.262-.555c-.016-.03-.028-.061-.044-.091-.09-.168-.19-.33-.292-.49-.027-.041-.048-.084-.075-.124a7.593 7.593 0 0 0-.321-.434c-.036-.046-.068-.095-.106-.141a7.454 7.454 0 0 0-.439-.484l-.041-.045L353.709 7.136c-.018-.018-.037-.032-.056-.05a7.19 7.19 0 0 0-.472-.428c-.054-.043-.11-.08-.165-.122-.134-.104-.267-.208-.408-.303-.05-.033-.102-.06-.152-.092a7.1 7.1 0 0 0-.462-.276c-.035-.019-.072-.034-.108-.052a7.539 7.539 0 0 0-.539-.255c-.023-.01-.047-.016-.072-.026a7.396 7.396 0 0 0-.599-.215c-.026-.008-.052-.013-.079-.02a7.439 7.439 0 0 0-.61-.154c-.062-.013-.125-.018-.187-.028-.172-.03-.344-.06-.522-.078a7.216 7.216 0 0 0-.727-.037H107.337c-21.184 0-38.42 17.235-38.42 38.42v420.178c0 21.184 17.236 38.419 38.42 38.419h311.244c21.184 0 38.419-17.235 38.419-38.419V113.449c0-.244-.013-.487-.037-.729ZM355.846 29.905l76.249 76.249h-52.42c-13.139 0-23.829-10.69-23.829-23.83V29.906Zm62.735 457.523H107.337c-13.14 0-23.83-10.689-23.83-23.83V43.419c0-13.14 10.69-23.83 23.83-23.83h233.919v62.736c0 21.184 17.235 38.419 38.419 38.419h62.735v342.854c0 13.141-10.69 23.83-23.829 23.83Z" fill="url(#l)"/><path d="M395.238 246.214h-46.689a7.294 7.294 0 1 0 0 14.589h46.689a7.294 7.294 0 0 0 7.294-7.294 7.294 7.294 0 0 0-7.294-7.295Z" fill="url(#m)"/><path d="M130.68 260.803h186.748a7.294 7.294 0 0 0 7.294-7.294 7.294 7.294 0 0 0-7.294-7.295H130.68a7.294 7.294 0 0 0-7.294 7.295 7.294 7.294 0 0 0 7.294 7.294Z" fill="url(#n)"/><path d="M395.238 152.841H200.71a7.295 7.295 0 1 0 0 14.589h194.528a7.294 7.294 0 0 0 7.294-7.294 7.294 7.294 0 0 0-7.294-7.295Z" fill="url(#o)"/><path d="M130.68 167.43h38.909a7.295 7.295 0 1 0 0-14.589H130.68a7.294 7.294 0 0 0-7.294 7.295 7.294 7.294 0 0 0 7.294 7.294Z" fill="url(#p)"/><path d="M395.238 339.587H247.397a7.295 7.295 0 1 0 0 14.59h147.841a7.295 7.295 0 0 0 7.294-7.295 7.294 7.294 0 0 0-7.294-7.295Z" fill="url(#q)"/><path d="M216.272 339.587H130.68a7.294 7.294 0 0 0-7.294 7.295 7.295 7.295 0 0 0 7.294 7.295h85.592a7.295 7.295 0 1 0 0-14.59Z" fill="url(#r)"/><path d="M395.238 199.527H130.68a7.295 7.295 0 0 0-7.294 7.295 7.294 7.294 0 0 0 7.294 7.295h264.558a7.294 7.294 0 0 0 7.294-7.295 7.295 7.295 0 0 0-7.294-7.295Z" fill="url(#s)"/><path d="M395.238 292.9H130.68a7.295 7.295 0 0 0-7.294 7.295 7.294 7.294 0 0 0 7.294 7.295h264.558a7.294 7.294 0 0 0 7.294-7.295 7.295 7.295 0 0 0-7.294-7.295Z" fill="url(#t)"/></g><defs><linearGradient id="j" x1="86.221" y1="311.731" x2="89.224" y2="275.736" gradientUnits="userSpaceOnUse"><stop stop-color="#38BDF8"/><stop offset="1" stop-color="#3FE1CE"/></linearGradient><linearGradient id="t" x1="94.002" y1="303.95" x2="97.005" y2="267.955" gradientUnits="userSpaceOnUse"><stop stop-color="#38BDF8"/><stop offset="1" stop-color="#3FE1CE"/></linearGradient><linearGradient id="b" x1="20.286" y1="389.192" x2="507.577" y2="150.895" gradientUnits="userSpaceOnUse"><stop stop-color="#38BDF8"/><stop offset="1" stop-color="#3FE1CE"/></linearGradient><linearGradient id="c" x1="327.023" y1="265.044" x2="339.062" y2="233.376" gradientUnits="userSpaceOnUse"><stop stop-color="#38BDF8"/><stop offset="1" stop-color="#3FE1CE"/></linearGradient><linearGradient id="d" x1="94.411" y1="265.044" x2="98.549" y2="229.278" gradientUnits="userSpaceOnUse"><stop stop-color="#38BDF8"/><stop offset="1" stop-color="#3FE1CE"/></linearGradient><linearGradient id="e" x1="163.622" y1="171.671" x2="167.61" y2="135.87" gradientUnits="userSpaceOnUse"><stop stop-color="#38BDF8"/><stop offset="1" stop-color="#3FE1CE"/></linearGradient><linearGradient id="f" x1="109.973" y1="171.671" x2="123.24" y2="141.203" gradientUnits="userSpaceOnUse"><stop stop-color="#38BDF8"/><stop offset="1" stop-color="#3FE1CE"/></linearGradient><linearGradient id="g" x1="215.223" y1="358.417" x2="220.316" y2="322.903" gradientUnits="userSpaceOnUse"><stop stop-color="#38BDF8"/><stop offset="1" stop-color="#3FE1CE"/></linearGradient><linearGradient id="h" x1="105.059" y1="358.417" x2="113.055" y2="324.031" gradientUnits="userSpaceOnUse"><stop stop-color="#38BDF8"/><stop offset="1" stop-color="#3FE1CE"/></linearGradient><linearGradient id="i" x1="86.221" y1="218.358" x2="89.224" y2="182.363" gradientUnits="userSpaceOnUse"><stop stop-color="#38BDF8"/><stop offset="1" stop-color="#3FE1CE"/></linearGradient><linearGradient id="s" x1="94.002" y1="210.577" x2="97.005" y2="174.582" gradientUnits="userSpaceOnUse"><stop stop-color="#38BDF8"/><stop offset="1" stop-color="#3FE1CE"/></linearGradient><linearGradient id="l" x1="28.067" y1="381.41" x2="515.358" y2="143.114" gradientUnits="userSpaceOnUse"><stop stop-color="#38BDF8"/><stop offset="1" stop-color="#3FE1CE"/></linearGradient><linearGradient id="m" x1="334.804" y1="257.263" x2="346.843" y2="225.595" gradientUnits="userSpaceOnUse"><stop stop-color="#38BDF8"/><stop offset="1" stop-color="#3FE1CE"/></linearGradient><linearGradient id="n" x1="102.192" y1="257.263" x2="106.33" y2="221.497" gradientUnits="userSpaceOnUse"><stop stop-color="#38BDF8"/><stop offset="1" stop-color="#3FE1CE"/></linearGradient><linearGradient id="o" x1="171.403" y1="163.89" x2="175.391" y2="128.089" gradientUnits="userSpaceOnUse"><stop stop-color="#38BDF8"/><stop offset="1" stop-color="#3FE1CE"/></linearGradient><linearGradient id="p" x1="117.754" y1="163.89" x2="131.021" y2="133.422" gradientUnits="userSpaceOnUse"><stop stop-color="#38BDF8"/><stop offset="1" stop-color="#3FE1CE"/></linearGradient><linearGradient id="q" x1="223.004" y1="350.636" x2="228.097" y2="315.121" gradientUnits="userSpaceOnUse"><stop stop-color="#38BDF8"/><stop offset="1" stop-color="#3FE1CE"/></linearGradient><linearGradient id="r" x1="112.84" y1="350.636" x2="120.836" y2="316.25" gradientUnits="userSpaceOnUse"><stop stop-color="#38BDF8"/><stop offset="1" stop-color="#3FE1CE"/></linearGradient><filter id="k" x="49.918" y="-14" width="421.082" height="530.017" filterUnits="userSpaceOnUse" color-interpolation-filters="sRGB"><feFlood flood-opacity="0" result="BackgroundImageFix"/><feBlend in="SourceGraphic" in2="BackgroundImageFix" result="shape"/><feColorMatrix in="SourceAlpha" values="0 0 0 0 0 0 0 0 0 0 0 0 0 0 0 0 0 0 127 0" result="hardAlpha"/><feOffset dx="12" dy="12"/><feGaussianBlur stdDeviation="10"/><feComposite in2="hardAlpha" operator="arithmetic" k2="-1" k3="1"/><feColorMatrix values="0 0 0 0 1 0 0 0 0 1 0 0 0 0 1 0 0 0 0.27 0"/><feBlend in2="shape" result="effect1_innerShadow_5_3"/><feColorMatrix in="SourceAlpha" values="0 0 0 0 0 0 0 0 0 0 0 0 0 0 0 0 0 0 127 0" result="hardAlpha"/><feOffset dx="-17" dy="-17"/><feGaussianBlur stdDeviation="17"/><feComposite in2="hardAlpha" operator="arithmetic" k2="-1" k3="1"/><feColorMatrix values="0 0 0 0 0 0 0 0 0 0 0 0 0 0 0 0 0 0 0.03 0"/><feBlend in2="effect1_innerShadow_5_3" result="effect2_innerShadow_5_3"/></filter><filter id="a" x="44.137" y="-4.219" width="417.082" height="526.017" filterUnits="userSpaceOnUse" color-interpolation-filters="sRGB"><feFlood flood-opacity="0" result="BackgroundImageFix"/><feBlend in="SourceGraphic" in2="BackgroundImageFix" result="shape"/><feColorMatrix in="SourceAlpha" values="0 0 0 0 0 0 0 0 0 0 0 0 0 0 0 0 0 0 127 0" result="hardAlpha"/><feOffset dx="12" dy="12"/><feGaussianBlur stdDeviation="10"/><feComposite in2="hardAlpha" operator="arithmetic" k2="-1" k3="1"/><feColorMatrix values="0 0 0 0 1 0 0 0 0 1 0 0 0 0 1 0 0 0 0.27 0"/><feBlend in2="shape" result="effect1_innerShadow_5_3"/><feColorMatrix in="SourceAlpha" values="0 0 0 0 0 0 0 0 0 0 0 0 0 0 0 0 0 0 127 0" result="hardAlpha"/><feOffset dx="-17" dy="-17"/><feGaussianBlur stdDeviation="17"/><feComposite in2="hardAlpha" operator="arithmetic" k2="-1" k3="1"/><feColorMatrix values="0 0 0 0 0 0 0 0 0 0 0 0 0 0 0 0 0 0 0.03 0"/><feBlend in2="effect1_innerShadow_5_3" result="effect2_innerShadow_5_3"/></filter></defs></svg>